<svg width="201" height="60" viewBox="0 0 201 60" fill="none" xmlns="http://www.w3.org/2000/svg">
<g clip-path="url(#clip0_3_260)">
<path fill-rule="evenodd" clip-rule="evenodd" d="M200.356 21.6611C200.356 21.6891 200.359 21.7205 200.363 21.7484C200.366 21.8356 200.37 21.9194 200.373 22.0066V22.0345C200.373 22.1113 200.373 22.1881 200.373 22.2649V34.6118C200.373 34.8142 200.366 35.0166 200.356 35.219C200.356 36.6044 200.3 37.7875 200.122 39.1764C198.615 50.9231 188.63 60 176.535 60C166.728 60 158.349 54.0499 154.699 45.5872V49.918C154.699 55.4668 150.166 60 144.617 60C142.645 60 141.04 58.3947 141.04 56.423V38.3389C141.04 38.3109 141.036 38.2795 141.036 38.2516C141.033 38.1644 141.029 38.0806 141.026 37.9934V37.9655C141.026 37.8887 141.026 37.8119 141.026 37.7351V25.3882C141.026 25.1858 141.033 24.9834 141.043 24.781V23.605C141.043 23.3956 141.061 23.1862 141.099 22.9803C141.581 10.2076 152.033 0 164.861 0C174.668 0 183.047 5.9501 186.697 14.4128V10.082C186.697 4.53324 191.23 0 196.779 0C198.751 0 200.356 1.6053 200.356 3.57704V21.6611ZM167.44 13.9906C166.606 13.7742 165.737 13.6625 164.861 13.6625C159.211 13.6625 154.682 18.276 154.682 23.9086V23.94C154.682 24.111 154.685 24.2785 154.696 24.4495V24.4983V26.6062C157.114 20.9876 161.633 16.402 167.437 13.9906H167.44ZM186.693 33.3938C184.275 39.0124 179.759 43.598 173.956 46.0059C174.79 46.2258 175.652 46.3375 176.531 46.3375C182.181 46.3375 186.711 41.724 186.711 36.0914V36.06C186.711 35.889 186.707 35.7215 186.697 35.5505V35.5017V33.3938H186.693ZM166.564 34.0115C170.756 33.3031 173.991 30.0471 174.828 25.985C170.637 26.6934 167.402 29.9494 166.564 34.0115Z" fill="#43586B"/>
<path fill-rule="evenodd" clip-rule="evenodd" d="M142.991 23.605C142.991 23.4689 143.008 23.3363 143.04 23.2106C143.406 11.4047 153.034 1.95081 164.861 1.95081C176.688 1.95081 186.697 11.7816 186.697 23.9086C186.697 33.7742 180.223 42.1218 171.317 44.8892C168.341 43.0955 166.358 39.8151 166.358 36.088V36.0112C172.354 35.2713 176.995 30.1344 176.995 23.9051C176.995 17.2919 171.691 11.7048 164.865 11.7048C158.039 11.7048 152.734 17.1663 152.734 23.9051V23.9365C152.734 24.1389 152.741 24.3448 152.752 24.5437V49.9145C152.752 54.3849 149.094 58.0457 144.62 58.0457C143.727 58.0457 142.994 57.3129 142.994 56.4195V23.6015L142.991 23.605Z" fill="#ED1C24"/>
<path fill-rule="evenodd" clip-rule="evenodd" d="M198.405 36.3951C198.405 37.5327 198.192 39.1171 197.983 40.2234C196.06 50.3752 187.189 58.0492 176.535 58.0492C164.477 58.0492 154.699 48.2185 154.699 36.0914C154.699 26.2258 161.173 17.8782 170.078 15.1108C173.055 16.9046 175.037 20.185 175.037 23.9121V23.9888C169.042 24.7287 164.401 29.8657 164.401 36.0949C164.401 42.7081 169.705 48.2953 176.531 48.2953C183.357 48.2953 188.662 42.8337 188.662 36.0949V36.0635C188.662 35.8611 188.655 35.6552 188.644 35.4563V10.082C188.644 5.6116 192.301 1.95081 196.775 1.95081C197.669 1.95081 198.402 2.68366 198.402 3.57705V36.3951H198.405Z" fill="white"/>
<path fill-rule="evenodd" clip-rule="evenodd" d="M184.645 23.8806C184.645 14.9258 178.726 7.35647 170.588 4.86476C170.546 4.8508 170.504 4.84033 170.462 4.82986C170.019 4.71121 169.538 4.92059 169.332 5.34984C169.098 5.83492 169.304 6.41772 169.789 6.65153C169.799 6.65851 169.81 6.662 169.824 6.66549C169.866 6.68294 169.908 6.6969 169.953 6.71086C177.316 8.93386 182.68 15.7634 182.694 23.8457C182.698 24.3867 183.123 24.8264 183.671 24.8264C184.219 24.8264 184.631 24.4041 184.648 23.8771L184.645 23.8806ZM167.552 6.149C167.5 6.149 167.451 6.14551 167.402 6.13853C166.54 6.0129 165.657 5.94659 164.757 5.94659C164.24 5.91868 163.828 5.49292 163.828 4.96945C163.828 4.44598 164.265 3.99231 164.806 3.99231C164.823 3.99231 164.84 3.99231 164.861 3.99231C165.807 3.9958 166.739 4.06909 167.65 4.2017C167.681 4.2017 167.709 4.20868 167.74 4.21566C168.187 4.3029 168.526 4.70074 168.526 5.17186C168.526 5.70929 168.089 6.149 167.548 6.149H167.552Z" fill="white"/>
<path fill-rule="evenodd" clip-rule="evenodd" d="M156.632 36.1054C156.632 45.0602 162.551 52.6296 170.689 55.1213C170.731 55.1352 170.773 55.1457 170.815 55.1562C171.262 55.2748 171.74 55.0654 171.946 54.6362C172.179 54.1511 171.974 53.5683 171.488 53.3345C171.478 53.3275 171.467 53.324 171.454 53.3205C171.412 53.3031 171.37 53.2856 171.324 53.2752C163.961 51.0522 158.597 44.2227 158.583 36.1403C158.583 35.5994 158.154 35.1597 157.606 35.1597C157.058 35.1597 156.646 35.5819 156.629 36.1089L156.632 36.1054ZM173.725 53.8335C173.778 53.8335 173.827 53.837 173.875 53.844C174.737 53.9696 175.62 54.036 176.517 54.036C177.034 54.0639 177.446 54.4896 177.446 55.0131C177.446 55.5366 177.009 55.9902 176.468 55.9902C176.451 55.9902 176.433 55.9902 176.413 55.9902C175.467 55.9867 174.535 55.9135 173.624 55.7808C173.593 55.7808 173.565 55.7739 173.533 55.7669C173.087 55.6796 172.748 55.2818 172.748 54.8107C172.748 54.2733 173.184 53.8335 173.725 53.8335Z" fill="#43586B"/>
<path fill-rule="evenodd" clip-rule="evenodd" d="M126.854 0.0139592H127.091C129.419 0.0139592 131.324 1.91939 131.324 4.24708V11.6873C131.324 18.1434 126.093 23.3746 119.637 23.3746C115.969 23.3746 112.696 21.6856 110.553 19.0403C108.41 21.6821 105.137 23.3746 101.469 23.3746C97.8014 23.3746 94.528 21.6856 92.3853 19.0403C90.2425 21.6821 86.9691 23.3746 83.3013 23.3746C80.9178 23.3746 78.6983 22.6592 76.8522 21.4343V29.2305C76.8522 29.6388 76.5207 29.9703 76.1124 29.9703H75.8751C73.5474 29.9703 71.6419 28.0649 71.6419 25.7372V21.4169C69.7889 22.6557 67.5589 23.3746 65.1649 23.3746C58.7088 23.3746 53.4776 18.1434 53.4776 11.6873C53.4776 5.2312 58.7088 0 65.1649 0C71.621 0 76.8522 5.2312 76.8522 11.6873C76.8522 11.7048 76.8522 11.7257 76.8522 11.7432V12.2771C77.1488 15.5784 79.9232 18.1644 83.3013 18.1644C86.8784 18.1644 89.7784 15.2644 89.7784 11.6873C89.7784 8.11028 86.8784 5.21026 83.3013 5.21026H78.0422C77.6339 5.21026 77.3024 4.87524 77.3024 4.47042V4.23312C77.3024 1.90543 79.2078 0 81.5355 0H105.102C105.51 0 105.842 0.33502 105.842 0.739836V0.977142C105.842 3.30483 103.936 5.21026 101.609 5.21026H93.0309C94.2663 7.06334 94.9887 9.29332 94.9887 11.6873C94.9887 15.2644 97.8887 18.1644 101.466 18.1644C105.043 18.1644 107.943 15.2644 107.943 11.6873V5.85587C107.943 5.44757 108.278 5.11604 108.683 5.11604H108.92C111.248 5.11604 113.153 7.02146 113.153 9.34915V11.6908C113.153 15.2678 116.053 18.1679 119.63 18.1679C123.207 18.1679 126.107 15.2678 126.107 11.6908V0.753795C126.107 0.34549 126.442 0.0139592 126.847 0.0139592H126.854ZM2.59641 5.21026C4.03071 5.21026 5.19281 4.04816 5.19281 2.61385C5.19281 1.17955 4.03071 0.017449 2.59641 0.017449C1.1621 0.017449 0 1.17955 0 2.61385C0 4.04816 1.1621 5.21026 2.59641 5.21026ZM5.21026 24.9206V29.227C5.21026 29.6353 4.87873 29.9668 4.47042 29.9668H4.23312C1.90543 29.9668 0 28.0614 0 25.7337V7.93928C0 7.53097 0.33502 7.19944 0.739836 7.19944H0.977142C3.30483 7.19944 5.21026 9.10487 5.21026 11.4326V24.9241V24.9206ZM30.0541 29.9703H29.8168C27.4891 29.9703 25.5837 28.0649 25.5837 25.7372V21.4169C23.7306 22.6557 21.5006 23.3746 19.1066 23.3746C12.6505 23.3746 7.4193 18.1434 7.4193 11.6873C7.4193 5.2312 12.654 0 19.1066 0C25.5592 0 30.7939 5.2312 30.7939 11.6873C30.7939 11.7048 30.7939 11.7257 30.7939 11.7432V29.2305C30.7939 29.6388 30.4624 29.9703 30.0541 29.9703ZM19.1066 5.21026C15.5296 5.21026 12.6296 8.11028 12.6296 11.6873C12.6296 15.2644 15.5296 18.1644 19.1066 18.1644C22.6837 18.1644 25.5837 15.2644 25.5837 11.6873C25.5837 8.11028 22.6837 5.21026 19.1066 5.21026ZM33.0065 4.47042V4.23312C33.0065 1.90543 34.9119 0 37.2396 0H39.5812C46.0373 0 51.2685 5.2312 51.2685 11.6873C51.2685 18.1434 46.0583 23.3537 39.6196 23.3746H39.5812H33.7498C33.3415 23.3746 33.0099 23.0431 33.0099 22.6348V22.3975C33.0099 20.0698 34.9154 18.1644 37.2431 18.1644H39.5847C43.1618 18.1644 46.0618 15.2644 46.0618 11.6873C46.0618 8.11028 43.1618 5.21026 39.5847 5.21026H33.7533C33.345 5.21026 33.0134 4.87524 33.0134 4.47042H33.0065ZM126.837 29.9703C128.271 29.9703 129.433 28.8082 129.433 27.3739C129.433 25.9396 128.271 24.7775 126.837 24.7775C125.402 24.7775 124.24 25.9396 124.24 27.3739C124.24 28.8082 125.402 29.9703 126.837 29.9703ZM105.179 29.9703C106.613 29.9703 107.775 28.8082 107.775 27.3739C107.775 25.9396 106.613 24.7775 105.179 24.7775C103.745 24.7775 102.582 25.9396 102.582 27.3739C102.582 28.8082 103.745 29.9703 105.179 29.9703ZM120.712 29.9703C122.146 29.9703 123.308 28.8082 123.308 27.3739C123.308 25.9396 122.146 24.7775 120.712 24.7775C119.278 24.7775 118.116 25.9396 118.116 27.3739C118.116 28.8082 119.278 29.9703 120.712 29.9703ZM99.0543 29.9703C100.489 29.9703 101.651 28.8082 101.651 27.3739C101.651 25.9396 100.489 24.7775 99.0543 24.7775C97.62 24.7775 96.4579 25.9396 96.4579 27.3739C96.4579 28.8082 97.62 29.9703 99.0543 29.9703ZM114.584 29.9703C116.018 29.9703 117.18 28.8082 117.18 27.3739C117.18 25.9396 116.018 24.7775 114.584 24.7775C113.15 24.7775 111.987 25.9396 111.987 27.3739C111.987 28.8082 113.15 29.9703 114.584 29.9703ZM65.1649 5.21026C61.5879 5.21026 58.6878 8.11028 58.6878 11.6873C58.6878 15.2644 61.5879 18.1644 65.1649 18.1644C68.7419 18.1644 71.6419 15.2644 71.6419 11.6873C71.6419 8.11028 68.7419 5.21026 65.1649 5.21026Z" fill="#43586B"/>
<path fill-rule="evenodd" clip-rule="evenodd" d="M45.6639 24.6274L46.6864 23.6049C46.7841 23.5072 46.9412 23.5072 47.0389 23.6049L47.0947 23.6607C47.6461 24.2121 47.6461 25.1195 47.0947 25.6709C45.8628 26.9028 45.123 27.6426 43.8911 28.8745L42.8686 29.897C42.7709 29.9947 42.6138 29.9947 42.5161 29.897L42.4603 29.8412C41.9089 29.2898 41.9089 28.3824 42.4603 27.831C43.6922 26.5991 44.432 25.8593 45.6639 24.6274Z" fill="#43586B"/>
<rect y="37.2469" width="131.216" height="22.6837" rx="11.3418" fill="#ED1C24"/>
<path d="M10.7015 48.9478C10.7015 49.3279 10.8316 49.6531 11.0917 49.9232C11.3618 50.1933 11.6919 50.3283 12.0821 50.3283H18.1595C18.4196 50.3283 18.6347 50.2433 18.8048 50.0732C18.9749 49.8932 19.0599 49.6781 19.0599 49.428V46.907H20.4105V49.413C20.4105 49.6631 20.5005 49.8782 20.6806 50.0582C20.8606 50.2383 21.0807 50.3283 21.3408 50.3283H21.776C21.836 50.3283 21.8861 50.3484 21.9261 50.3884C21.9661 50.4184 21.9861 50.4684 21.9861 50.5384V51.6939C21.9861 51.7539 21.9661 51.8039 21.9261 51.844C21.8861 51.884 21.836 51.904 21.776 51.904H21.5659C20.8056 51.904 20.2004 51.5939 19.7502 50.9736C19.3 51.5939 18.6948 51.904 17.9344 51.904H12.2171C11.6969 51.904 11.2167 51.7739 10.7765 51.5138C10.3364 51.2537 9.98621 50.9086 9.7261 50.4784C9.476 50.0382 9.35095 49.558 9.35095 49.0378V46.4718H10.7015V48.9478ZM15.2934 44.9562H16.779V46.4568H15.2934V44.9562ZM13.0124 44.9562H14.498V46.4568H13.0124V44.9562Z" fill="white"/>
<path d="M21.7697 51.904C21.7097 51.904 21.6596 51.884 21.6196 51.844C21.5796 51.8039 21.5596 51.7539 21.5596 51.6939V50.5534C21.5596 50.4934 21.5796 50.4434 21.6196 50.4034C21.6596 50.3534 21.7097 50.3283 21.7697 50.3283H23.9156C24.1657 50.3283 24.3807 50.2383 24.5608 50.0582C24.7409 49.8782 24.8309 49.6631 24.8309 49.413V46.4868H26.1665V49.413C26.1665 49.8632 26.0564 50.2783 25.8363 50.6585C25.6162 51.0386 25.3161 51.3438 24.936 51.5738C24.5558 51.7939 24.1406 51.904 23.6905 51.904H21.7697ZM24.4108 53.7047H25.8964V55.2053H24.4108V53.7047ZM22.1298 53.7047H23.6154V55.2053H22.1298V53.7047Z" fill="white"/>
<path d="M30.438 51.904C29.9879 51.904 29.5727 51.7939 29.1925 51.5738C28.8124 51.3538 28.5123 51.0586 28.2922 50.6885C28.0721 50.3083 27.962 49.8932 27.962 49.443V41.8199H29.3126V49.413C29.3126 49.6731 29.3976 49.8932 29.5677 50.0732C29.7378 50.2433 29.9479 50.3283 30.198 50.3283H30.9483C31.0083 50.3283 31.0583 50.3534 31.0983 50.4034C31.1383 50.4434 31.1583 50.4934 31.1583 50.5534V51.6939C31.1583 51.834 31.0883 51.904 30.9483 51.904H30.438Z" fill="white"/>
<path d="M30.9433 51.904C30.8833 51.904 30.8333 51.884 30.7933 51.844C30.7533 51.8039 30.7332 51.7539 30.7332 51.6939V50.5384C30.7332 50.4784 30.7583 50.4284 30.8083 50.3884C30.8483 50.3484 30.8933 50.3283 30.9433 50.3283H31.5886C31.8387 50.3283 32.0488 50.2383 32.2189 50.0582C32.3989 49.8682 32.489 49.6431 32.489 49.383V46.922H33.8245V49.398C33.8245 49.6481 33.9145 49.8682 34.0946 50.0582C34.2847 50.2383 34.5048 50.3283 34.7549 50.3283H35.055C35.3351 50.3283 35.5552 50.2583 35.7153 50.1183C35.8853 49.9682 35.9954 49.7681 36.0454 49.518L36.5556 46.952L37.9062 47.2071L37.486 49.3229C37.476 49.3629 37.471 49.418 37.471 49.488C37.471 49.7181 37.551 49.9182 37.7111 50.0882C37.8812 50.2483 38.0862 50.3283 38.3263 50.3283H39.5718V46.4868H40.9224V50.3283C40.9224 50.7785 40.7723 51.1537 40.4722 51.4538C40.1721 51.7539 39.7969 51.904 39.3468 51.904H38.3263C37.576 51.904 37.0408 51.5889 36.7207 50.9586C36.5206 51.2687 36.2705 51.5038 35.9704 51.6639C35.6703 51.824 35.3451 51.904 34.995 51.904C34.2247 51.904 33.6194 51.5939 33.1792 50.9736C32.7091 51.5939 32.0938 51.904 31.3335 51.904H30.9433Z" fill="white"/>
<path d="M53.2097 51.904C53.2397 51.984 53.2647 52.0741 53.2847 52.1741C53.3147 52.2741 53.3297 52.3942 53.3297 52.5342V53.0294C53.3297 53.4896 53.1947 53.8998 52.9246 54.2599C52.6545 54.6301 52.2993 54.9152 51.8591 55.1153C51.419 55.3254 50.9488 55.4304 50.4486 55.4304H47.7325C47.1522 55.4304 46.617 55.2854 46.1268 54.9952C45.6366 54.7151 45.2465 54.33 44.9563 53.8398C44.6762 53.3496 44.5362 52.8144 44.5362 52.2341V48.4676H45.8717V52.039C45.8717 52.5392 46.0468 52.9644 46.3969 53.3146C46.7471 53.6647 47.1722 53.8398 47.6724 53.8398H50.8087C51.1689 53.8398 51.454 53.7247 51.6641 53.4946C51.8842 53.2645 51.9942 52.9694 51.9942 52.6093V51.904H48.978V50.3283H54.6653C54.7253 50.3283 54.7753 50.3484 54.8154 50.3884C54.8554 50.4184 54.8754 50.4634 54.8754 50.5234V51.6789C54.8754 51.7389 54.8504 51.7939 54.8003 51.844C54.7603 51.884 54.7153 51.904 54.6653 51.904H53.2097Z" fill="white"/>
<path d="M54.6688 51.904C54.5288 51.904 54.4587 51.834 54.4587 51.6939V50.5384C54.4587 50.4884 54.4837 50.4434 54.5338 50.4034C54.5738 50.3534 54.6188 50.3283 54.6688 50.3283H57.2499C57.7701 50.3283 58.2153 50.2683 58.5854 50.1483C58.9556 50.0282 59.3257 49.7831 59.6959 49.413L60.6412 48.4976C60.6813 48.4576 60.7513 48.3926 60.8513 48.3025C60.9514 48.2125 61.0264 48.1525 61.0764 48.1224L57.655 47.102C57.625 47.092 57.575 47.087 57.505 47.087C57.3849 47.087 57.2749 47.127 57.1748 47.2071C57.0748 47.2771 57.0098 47.3671 56.9797 47.4772L56.5146 48.7977L55.3591 48.4826L55.7342 47.2071C55.8543 46.7769 56.0894 46.4368 56.4395 46.1867C56.7997 45.9266 57.1948 45.7965 57.625 45.7965C57.8451 45.7965 58.0302 45.8215 58.1802 45.8715L64.0626 47.6422L63.6875 48.8878L63.0122 48.6927C62.8121 48.6427 62.6721 48.6176 62.592 48.6176C62.472 48.6176 62.3569 48.6477 62.2469 48.7077C62.1469 48.7677 62.0068 48.8828 61.8267 49.0528L60.101 50.7335C59.7109 51.1237 59.2457 51.4188 58.7055 51.6189C58.1652 51.8089 57.6 51.904 57.0098 51.904H54.6688Z" fill="white"/>
<path d="M65.5945 41.8199H66.9451V51.904H65.5945V41.8199Z" fill="white"/>
<path d="M66.9809 54.365L68.1063 53.7797C68.4765 53.5897 68.7566 53.3496 68.9466 53.0595C69.1367 52.7693 69.2318 52.3342 69.2318 51.7539V46.922H70.5673V49.473C70.5673 49.7131 70.6573 49.9182 70.8374 50.0882C71.0275 50.2483 71.2426 50.3283 71.4827 50.3283H72.0529C72.1329 50.3283 72.188 50.3433 72.218 50.3734C72.248 50.3934 72.263 50.4434 72.263 50.5234V51.6939C72.263 51.7739 72.248 51.829 72.218 51.859C72.188 51.889 72.1329 51.904 72.0529 51.904H71.7078C71.4877 51.904 71.2726 51.859 71.0625 51.7689C70.8624 51.6789 70.6974 51.5438 70.5673 51.3638V51.934C70.5673 52.6943 70.4122 53.2996 70.1021 53.7497C69.802 54.1999 69.3468 54.5901 68.7366 54.9202L67.5961 55.5655L66.9809 54.365Z" fill="white"/>
<path d="M72.0489 51.904C71.9089 51.904 71.8388 51.834 71.8388 51.6939V50.5384C71.8388 50.4784 71.8588 50.4284 71.8989 50.3884C71.9289 50.3484 71.9789 50.3283 72.0489 50.3283H73.0243L74.645 48.5876V41.8199H75.9805V46.2467C75.9805 46.5068 75.9555 46.7219 75.9055 46.8919C75.8655 47.052 75.8005 47.2421 75.7104 47.4622L76.3707 46.8619C76.6108 46.6418 76.8759 46.4818 77.166 46.3817C77.4661 46.2817 77.8163 46.2317 78.2164 46.2317H79.1468C79.557 46.2317 79.9371 46.3367 80.2873 46.5468C80.6374 46.7469 80.9125 47.022 81.1126 47.3721C81.3227 47.7223 81.4277 48.1024 81.4277 48.5126V49.488C81.4277 49.9182 81.3177 50.3183 81.0976 50.6885C80.8875 51.0586 80.5974 51.3538 80.2273 51.5738C79.8571 51.7939 79.4519 51.904 79.0118 51.904H72.0489ZM79.2218 50.3283C79.4619 50.3283 79.662 50.2483 79.8221 50.0882C79.9922 49.9182 80.0772 49.7181 80.0772 49.488V48.6176C80.0772 48.3675 79.9922 48.1575 79.8221 47.9874C79.662 47.8173 79.4619 47.7323 79.2218 47.7323H78.0664C77.4861 47.7323 77.006 47.9424 76.6258 48.3625L74.7951 50.3283H79.2218Z" fill="white"/>
<path d="M85.2517 47.117C85.2517 46.1666 85.2067 45.3213 85.1167 44.581C85.0366 43.8407 84.9016 42.9553 84.7115 41.9249L86.1071 41.4897C86.2871 42.6602 86.4122 43.6056 86.4822 44.3259C86.5523 45.0362 86.5873 45.9015 86.5873 46.922V51.904H85.2517V47.117Z" fill="white"/>
<path d="M91.0661 46.1416C91.4763 46.1416 91.8514 46.2467 92.1916 46.4568C92.5417 46.6568 92.8168 46.932 93.0169 47.2821C93.227 47.6322 93.332 48.0124 93.332 48.4226V48.8878C93.332 49.2879 93.227 49.6631 93.0169 50.0132C92.8168 50.3634 92.5417 50.6435 92.1916 50.8536C91.8514 51.0536 91.4763 51.1537 91.0661 51.1537H90.676C90.2658 51.1537 89.8856 51.0536 89.5355 50.8536C89.1854 50.6435 88.9052 50.3634 88.6952 50.0132C88.4951 49.6631 88.395 49.2879 88.395 48.8878V48.4226C88.395 48.0124 88.4951 47.6322 88.6952 47.2821C88.9052 46.932 89.1854 46.6568 89.5355 46.4568C89.8856 46.2467 90.2658 46.1416 90.676 46.1416H91.0661ZM92.0415 48.3625C92.0415 48.1124 91.9615 47.9124 91.8014 47.7623C91.6414 47.6122 91.4363 47.5372 91.1862 47.5372H90.5559C90.3058 47.5372 90.1007 47.6172 89.9407 47.7773C89.7806 47.9274 89.7006 48.1224 89.7006 48.3625V48.8878C89.7006 49.1179 89.7806 49.3129 89.9407 49.473C90.1107 49.6331 90.3158 49.7131 90.5559 49.7131H91.1862C91.4363 49.7131 91.6414 49.6331 91.8014 49.473C91.9615 49.3129 92.0415 49.1179 92.0415 48.8878V48.3625Z" fill="white"/>
<path d="M97.9683 46.1416C98.3785 46.1416 98.7537 46.2467 99.0938 46.4568C99.4439 46.6568 99.7191 46.932 99.9191 47.2821C100.129 47.6322 100.234 48.0124 100.234 48.4226V48.8878C100.234 49.2879 100.129 49.6631 99.9191 50.0132C99.7191 50.3634 99.4439 50.6435 99.0938 50.8536C98.7537 51.0536 98.3785 51.1537 97.9683 51.1537H97.5782C97.168 51.1537 96.7879 51.0536 96.4377 50.8536C96.0876 50.6435 95.8075 50.3634 95.5974 50.0132C95.3973 49.6631 95.2973 49.2879 95.2973 48.8878V48.4226C95.2973 48.0124 95.3973 47.6322 95.5974 47.2821C95.8075 46.932 96.0876 46.6568 96.4377 46.4568C96.7879 46.2467 97.168 46.1416 97.5782 46.1416H97.9683ZM98.9437 48.3625C98.9437 48.1124 98.8637 47.9124 98.7036 47.7623C98.5436 47.6122 98.3385 47.5372 98.0884 47.5372H97.4581C97.208 47.5372 97.003 47.6172 96.8429 47.7773C96.6828 47.9274 96.6028 48.1224 96.6028 48.3625V48.8878C96.6028 49.1179 96.6828 49.3129 96.8429 49.473C97.013 49.6331 97.218 49.7131 97.4581 49.7131H98.0884C98.3385 49.7131 98.5436 49.6331 98.7036 49.473C98.8637 49.3129 98.9437 49.1179 98.9437 48.8878V48.3625Z" fill="white"/>
<path d="M106.568 51.904C106.117 51.904 105.702 51.7939 105.322 51.5738C104.942 51.3538 104.642 51.0586 104.422 50.6885C104.202 50.3083 104.092 49.8932 104.092 49.443V41.8199H105.442V49.413C105.442 49.6731 105.527 49.8932 105.697 50.0732C105.867 50.2433 106.077 50.3283 106.328 50.3283H107.078C107.138 50.3283 107.188 50.3534 107.228 50.4034C107.268 50.4434 107.288 50.4934 107.288 50.5534V51.6939C107.288 51.834 107.218 51.904 107.078 51.904H106.568Z" fill="white"/>
<path d="M107.073 51.904C107.013 51.904 106.963 51.884 106.923 51.844C106.883 51.8039 106.863 51.7539 106.863 51.6939V50.5534C106.863 50.4934 106.883 50.4434 106.923 50.4034C106.963 50.3534 107.013 50.3283 107.073 50.3283H109.219C109.469 50.3283 109.684 50.2383 109.864 50.0582C110.044 49.8782 110.134 49.6631 110.134 49.413V46.4868H111.47V49.413C111.47 49.8632 111.36 50.2783 111.14 50.6585C110.92 51.0386 110.619 51.3438 110.239 51.5738C109.859 51.7939 109.444 51.904 108.994 51.904H107.073ZM109.984 43.4105H111.47V44.9111H109.984V43.4105ZM107.703 43.4105H109.189V44.9111H107.703V43.4105Z" fill="white"/>
<path d="M117.679 46.1416C118.089 46.1416 118.464 46.2467 118.804 46.4568C119.154 46.6568 119.429 46.932 119.629 47.2821C119.839 47.6322 119.944 48.0124 119.944 48.4226V48.8878C119.944 49.2879 119.839 49.6631 119.629 50.0132C119.429 50.3634 119.154 50.6435 118.804 50.8536C118.464 51.0536 118.089 51.1537 117.679 51.1537H117.288C116.878 51.1537 116.498 51.0536 116.148 50.8536C115.798 50.6435 115.518 50.3634 115.308 50.0132C115.107 49.6631 115.007 49.2879 115.007 48.8878V48.4226C115.007 48.0124 115.107 47.6322 115.308 47.2821C115.518 46.932 115.798 46.6568 116.148 46.4568C116.498 46.2467 116.878 46.1416 117.288 46.1416H117.679ZM118.654 48.3625C118.654 48.1124 118.574 47.9124 118.414 47.7623C118.254 47.6122 118.049 47.5372 117.799 47.5372H117.168C116.918 47.5372 116.713 47.6172 116.553 47.7773C116.393 47.9274 116.313 48.1224 116.313 48.3625V48.8878C116.313 49.1179 116.393 49.3129 116.553 49.473C116.723 49.6331 116.928 49.7131 117.168 49.7131H117.799C118.049 49.7131 118.254 49.6331 118.414 49.473C118.574 49.3129 118.654 49.1179 118.654 48.8878V48.3625Z" fill="white"/>
</g>
<defs>
<clipPath id="clip0_3_260">
<rect width="200.373" height="60" fill="white"/>
</clipPath>
</defs>
</svg>
